<?xml version="1.0" encoding="utf-8"?>
<!-- Generator: Adobe Illustrator 23.0.4, SVG Export Plug-In . SVG Version: 6.00 Build 0)  -->
<svg version="1.1" id="Layer_1" xmlns="http://www.w3.org/2000/svg" xmlns:xlink="http://www.w3.org/1999/xlink" x="0px" y="0px"
	 viewBox="0 0 600.5 157.9" style="enable-background:new 0 0 600.5 157.9;" xml:space="preserve">
<style type="text/css">
	.st0{fill:#1A1818;}
	.st1{fill:#FFFFFF;stroke:#1A1818;stroke-width:2.5;stroke-miterlimit:10;}
</style>
<path class="st0" d="M394.7,134.8h-0.4h-16.9h-0.4v-0.4V60.6v-0.4h0.4h16.7h0.4v0.4v4.8c1.8-1.9,4.1-3.5,6.6-4.6
	c2.9-1.3,6.1-2,9.3-2c3.5,0,6.9,0.7,10,2.1c3,1.3,5.6,3.2,7.8,5.6c4.4,4.8,6.9,11.4,6.9,18.5c0,7.1-2.4,13.7-6.9,18.6
	c-2.2,2.4-4.8,4.3-7.8,5.7c-3.1,1.4-6.4,2.1-10,2.1c-3.3,0-6.3-0.5-9.1-1.6c-2.4-0.9-4.6-2.3-6.6-4v28.7V134.8z M405.3,74
	c-1.6,0-3.1,0.3-4.4,0.8c-1.3,0.5-2.5,1.3-3.5,2.3c-1,1-1.8,2.2-2.3,3.5c-0.5,1.4-0.8,2.9-0.8,4.5c0,3.1,1.1,6,3.2,8.1
	c2,2,4.8,3.1,7.8,3.1c3,0,5.8-1.1,7.9-3.1c1-1,1.8-2.2,2.4-3.5c0.6-1.4,0.9-2.9,0.9-4.5c0-1.6-0.3-3.1-0.8-4.5
	c-0.5-1.3-1.3-2.5-2.2-3.5c-1-1-2.2-1.8-3.5-2.3C408.5,74.2,406.9,74,405.3,74z"/>
<path class="st0" d="M458.9,109.9h-0.4h-16.9h-0.4v-0.4V27.5v-0.4h0.4h16.9h0.4v0.4v82.1V109.9z"/>
<path class="st0" d="M489.8,111.4c-3.5,0-6.9-0.7-10-2.1c-3-1.3-5.6-3.2-7.8-5.6c-4.4-4.8-6.9-11.4-6.9-18.5
	c0-7.1,2.4-13.7,6.9-18.6c2.2-2.4,4.8-4.3,7.8-5.7c3.1-1.4,6.4-2.1,10-2.1c3.3,0,6.3,0.5,9.1,1.6c2.4,0.9,4.6,2.3,6.6,4v-3.9v-0.4
	h0.4h16.9h0.4v0.4v49v0.4h-0.4H506h-0.4v-0.4v-4.8c-1.8,1.9-4.1,3.5-6.6,4.6C496.1,110.7,493,111.4,489.8,111.4z M494.8,74
	c-3,0-5.8,1.1-7.9,3.1c-1,1-1.8,2.2-2.4,3.5c-0.6,1.4-0.9,2.9-0.9,4.5c0,1.6,0.3,3.1,0.8,4.5c0.5,1.3,1.3,2.5,2.2,3.5
	c1,1,2.2,1.8,3.5,2.3c1.4,0.5,2.9,0.8,4.6,0.8c1.6,0,3.1-0.3,4.4-0.8c1.3-0.5,2.5-1.3,3.5-2.3c1-1,1.8-2.2,2.3-3.5
	c0.5-1.4,0.8-2.9,0.8-4.5c0-3.1-1.1-6-3.2-8.1C500.6,75.1,497.8,74,494.8,74z"/>
<path class="st0" d="M584.1,109.9h-0.4h-16.9h-0.4v-0.4V81.9c0-2.4-0.8-4.7-2.3-6.4c-0.8-0.9-1.6-1.6-2.6-2
	c-1.1-0.5-2.3-0.8-3.5-0.8c-2.3,0-4.8,1-6.7,2.8c-1.9,1.8-3,4.1-3,6.3v27.7v0.4H548h-16.9h-0.4v-0.4v-49v-0.4h0.4H548h0.4v0.4v4.5
	c1.9-1.9,4-3.3,6.1-4.4c2.5-1.3,5.1-1.9,7.7-1.9c5.3,0,10.5,1.5,14.3,4c2.3,1.5,4.1,3.5,5.4,5.7c1.4,2.5,2.1,5.5,2.1,8.8v32.3V109.9
	z"/>
<path class="st1" d="M45.6,112.6c-3.6,0-7.3-0.7-10.7-2.1c-3.4-1.4-6.4-3.3-9.1-5.8c-2.7-2.5-4.8-5.4-6.3-8.6
	c-1.6-3.4-2.4-7-2.4-10.7c0-3.7,0.8-7.3,2.4-10.7c1.5-3.3,3.6-6.2,6.3-8.7c2.7-2.5,5.7-4.5,9.1-5.9c3.5-1.4,7.1-2.2,10.8-2.2
	c2.6,0,5.1,0.3,7.4,0.7c1.9,0.4,3.7,1,5.4,1.7c2.9,1.2,4.4,2.5,4.5,2.5l0.9,0.7l-0.5,1l-5.7,11.5l-0.8,1.5l-1.4-1c0,0-0.8-0.5-2-1
	c-1.2-0.5-3-1-5.4-1c-2.7,0-5.3,1.1-7.2,3.1c-1.9,2-3,4.7-3,7.5c0,2.9,1.1,5.6,3,7.6c1.9,2,4.5,3.1,7.2,3.1c2.4,0,4.3-0.6,5.5-1
	c1.2-0.5,1.9-1,1.9-1l1.4-1l0.7,1.5l5.7,11.7l0.5,1l-0.9,0.7c-0.1,0.1-1.6,1.2-4.5,2.4c-1.7,0.7-3.5,1.2-5.4,1.6
	C50.7,112.4,48.2,112.6,45.6,112.6z"/>
<path class="st1" d="M90.3,112.6c-3.7,0-7.2-0.7-10.4-2.1c-3.1-1.4-5.8-3.3-8.2-5.9c-4.6-5-7.2-11.9-7.2-19.3
	c0-7.4,2.5-14.2,7.2-19.3c2.3-2.5,5.1-4.5,8.2-5.9c3.2-1.4,6.7-2.2,10.4-2.2c3.4,0,6.6,0.6,9.5,1.7c1.8,0.7,3.6,1.6,5.1,2.8v-1.6
	v-1.4h1.4h16.9h1.4v1.4v49v1.4h-1.4h-16.7h-1.4v-1.4v-2.4c-1.5,1.3-3.2,2.3-5.1,3.2C96.9,111.9,93.7,112.6,90.3,112.6z M95.3,75.2
	c-2.8,0-5.3,1-7.1,2.8c-0.9,0.9-1.6,2-2.1,3.2c-0.5,1.3-0.8,2.7-0.8,4.1c0,1.5,0.2,2.8,0.7,4.1c0.5,1.2,1.1,2.3,2,3.1
	c1.8,1.8,4.3,2.8,7.3,2.8c1.4,0,2.8-0.3,4-0.7c1.2-0.5,2.2-1.2,3.1-2.1c0.9-0.9,1.6-1.9,2-3.1c0.5-1.3,0.7-2.6,0.7-4.1
	c0-1.5-0.3-2.9-0.8-4.1c-0.5-1.2-1.2-2.3-2.1-3.2C100.5,76.2,98,75.2,95.3,75.2z"/>
<path class="st1" d="M151.1,111.2h-1.4h-16.9h-1.4v-1.4v-49v-1.4h1.4h16.9h1.4v1.4v3.3c0.5-0.5,1.1-1.1,1.7-1.6
	c1.6-1.3,3.3-2.4,5-3.1c2.2-1,4.6-1.4,7-1.4c6.7,0,11.3,3.2,11.5,3.3l1,0.7l-0.5,1.1l-7.1,14.3L169,79l-1.4-1.2
	c-0.1,0-0.8-0.6-2-1.2c-1.2-0.5-3.2-1.2-5.8-1.2c-3.2,0-5.6,1.3-7.1,3.8c-1.2,2.1-1.5,4.3-1.5,4.7v25.8V111.2z"/>
<path class="st1" d="M217.1,112.6c-3.4,0-6.7-0.7-9.8-2.1c-1.8-0.8-3.5-1.9-5.1-3.2v2.4v1.4h-1.4h-16.7h-1.4v-1.4V27.7v-1.4h1.4H201
	h1.4v1.4v34.7c1.6-1.1,3.3-2.1,5.1-2.8c2.9-1.1,6.1-1.7,9.5-1.7c3.7,0,7.2,0.7,10.4,2.2c3.1,1.4,5.8,3.4,8.2,5.9
	c4.6,5.1,7.2,11.9,7.2,19.3c0,7.4-2.5,14.2-7.2,19.3c-2.3,2.5-5.1,4.5-8.2,5.9C224.3,111.9,220.8,112.6,217.1,112.6z M212,75.2
	c-2.7,0-5.2,1-7,2.8c-0.9,0.9-1.6,2-2.1,3.2c-0.5,1.3-0.8,2.7-0.8,4.1c0,1.5,0.3,2.8,0.7,4.1c0.5,1.2,1.2,2.3,2,3.1
	c0.9,0.9,1.9,1.6,3.1,2.1c1.2,0.5,2.6,0.7,4,0.7c3,0,5.5-1,7.3-2.8c0.9-0.9,1.5-1.9,2-3.1c0.5-1.2,0.7-2.6,0.7-4.1
	c0-1.5-0.3-2.9-0.8-4.1c-0.5-1.2-1.2-2.3-2.1-3.2C217.3,76.2,214.8,75.2,212,75.2z"/>
<path class="st1" d="M278.3,112.6c-4.4,0-8.4-0.7-12.1-2c-3.6-1.3-6.8-3.2-9.5-5.6c-2.7-2.4-4.7-5.4-6.2-8.7
	c-1.4-3.4-2.2-7.1-2.2-11c0-3.9,0.8-7.7,2.3-11.1c1.5-3.3,3.7-6.2,6.4-8.7c5.5-4.9,13-7.6,21.2-7.6c8,0,15.5,2.7,21,7.6
	c2.8,2.5,4.9,5.4,6.4,8.7c1.6,3.4,2.3,7.2,2.3,11.1C308,101.1,295.5,112.6,278.3,112.6z M278.2,75.2c-2.7,0-5.1,1-6.9,2.8
	c-0.9,0.9-1.6,2-2.1,3.2c-0.5,1.3-0.8,2.7-0.8,4.1c0,1.5,0.2,2.8,0.7,4.1c0.5,1.2,1.1,2.3,2,3.1c1.8,1.8,4.2,2.8,7.1,2.8
	c1.4,0,2.7-0.3,3.9-0.7c1.2-0.5,2.2-1.2,3-2.1c0.9-0.9,1.5-1.9,2-3.1c0.5-1.3,0.7-2.6,0.7-4.1c0-1.5-0.3-2.9-0.8-4.1
	c-0.5-1.2-1.2-2.3-2.1-3.2C283.2,76.2,280.8,75.2,278.2,75.2z"/>
<path class="st1" d="M369.2,111.2h-1.4h-16.9h-1.4v-1.4V82.1c0-2.1-0.7-4.2-2-5.7c-1-1.1-2.7-2.4-5.3-2.4c-2.1,0-4.2,0.9-5.9,2.6
	c-1.7,1.6-2.7,3.6-2.7,5.6v27.7v1.4h-1.4h-16.9h-1.4v-1.4v-49v-1.4h1.4h16.9h1.4v1.4v2.1c1.5-1.2,3-2.2,4.6-3c2.7-1.3,5.5-2,8.2-2
	c2.5,0,5.1,0.3,7.5,1c2.8,0.7,5.3,1.8,7.4,3.2c2.5,1.6,4.4,3.7,5.7,6.1c1.5,2.7,2.3,5.8,2.3,9.3v32.3V111.2z"/>
</svg>
