<?xml version="1.0" encoding="utf-8"?>
<!-- Generator: Adobe Illustrator 23.0.4, SVG Export Plug-In . SVG Version: 6.00 Build 0)  -->
<svg version="1.1" id="Layer_1" xmlns="http://www.w3.org/2000/svg" xmlns:xlink="http://www.w3.org/1999/xlink" x="0px" y="0px"
	 viewBox="0 0 600.5 157.9" style="enable-background:new 0 0 600.5 157.9;" xml:space="preserve">
<style type="text/css">
	.st0{fill:#141212;}
	.st1{fill:#131313;}
	.st2{fill:#FFFFFF;}
</style>
<g id="Group_17" transform="translate(-112.814 -371.451)">
	<g id="treeplan" transform="translate(632.646 373.286)">
		<g id="Group_10">
			<g id="Group_9">
				<g id="Path_11" transform="translate(0 46.351)">
					<path id="Path_40" class="st0" d="M-131.4,88.4h-17.5V14.3h17.3v5.2c1.9-1.9,4.1-3.5,6.5-4.6c2.9-1.3,6.1-2,9.3-2
						c3.4,0,6.8,0.7,9.9,2c3,1.3,5.6,3.2,7.8,5.6c9.1,10.6,9.1,26.3,0,36.9c-2.2,2.4-4.8,4.3-7.8,5.6c-3.1,1.4-6.5,2.1-9.9,2.1
						c-3.1,0-6.2-0.5-9.1-1.6c-2.4-0.9-4.6-2.3-6.5-4L-131.4,88.4L-131.4,88.4z M-120.8,27.9c-1.5,0-3,0.3-4.4,0.8
						c-2.6,1-4.7,3.1-5.7,5.8c-0.6,1.4-0.8,2.9-0.8,4.5c-0.1,3,1.1,5.9,3.2,8c2.1,2,4.9,3.1,7.8,3.1c2.9,0,5.7-1.1,7.8-3.1
						c1-1,1.8-2.2,2.3-3.5c0.6-1.4,0.9-3,0.9-4.5c0-1.5-0.3-3-0.8-4.5c-1-2.6-3.1-4.7-5.7-5.8C-117.7,28.2-119.3,27.9-120.8,27.9z"
						/>
					<path id="Path_41" class="st1" d="M-131.7,88.1V58.7c4,3.9,9.4,6.1,16,6.1c14.2,0,24.2-11.6,24.2-25.8s-10-25.7-24.2-25.7
						c-6.1,0-11.8,2.5-16,6.9h-0.2v-5.5h-16.6v73.4H-131.7 M-120.8,27.6c6.8,0,11.4,4.8,11.4,11.4c0.2,6.2-4.7,11.3-10.8,11.5
						c-0.2,0-0.4,0-0.6,0c-6.3,0-11.3-4.7-11.3-11.5C-132.1,32.3-127.4,27.6-120.8,27.6 M-131,88.8h-18.2V13.9h18v4.7
						c1.8-1.7,3.8-3.1,6-4.1c3-1.3,6.2-2,9.4-2c3.5,0,6.9,0.7,10.1,2.1c3,1.3,5.7,3.3,7.9,5.7c9.3,10.8,9.3,26.7,0,37.4
						c-2.2,2.4-4.9,4.4-7.9,5.7c-3.2,1.4-6.6,2.1-10.1,2.1c-3.1,0-6.3-0.5-9.2-1.6c-2.2-0.8-4.2-2.1-6.1-3.6L-131,88.8L-131,88.8z
						 M-120.8,28.3c-1.5,0-2.9,0.3-4.3,0.8c-1.3,0.5-2.4,1.2-3.3,2.2c-1,1-1.7,2.1-2.2,3.4c-0.5,1.4-0.8,2.8-0.8,4.3
						c0,1.5,0.3,3,0.8,4.4c0.5,1.3,1.3,2.4,2.3,3.4c2,2,4.7,3,7.5,3c2.8,0,5.6-1,7.6-3c1-1,1.8-2.1,2.3-3.4c0.6-1.4,0.8-2.9,0.8-4.4
						c0-1.5-0.2-2.9-0.8-4.3c-1-2.6-3-4.6-5.5-5.6C-117.8,28.5-119.3,28.3-120.8,28.3z"/>
				</g>
				<g id="Path_12" transform="translate(95.351)">
					<path id="Path_42" class="st0" d="M-161.9,110.1h-17.5V27.7h17.5L-161.9,110.1L-161.9,110.1z"/>
					<path id="Path_43" class="st1" d="M-179,28v81.7h16.8V28H-179 M-179.7,27.3h18.2v83.1h-18.2V27.3L-179.7,27.3z"/>
				</g>
				<g id="Path_13" transform="translate(131.65 46.351)">
					<path id="Path_44" class="st0" d="M-166.4,65.2c-3.4,0-6.8-0.7-9.9-2c-3-1.3-5.6-3.2-7.8-5.6c-9.1-10.6-9.1-26.3,0-37
						c2.2-2.4,4.8-4.3,7.8-5.6c3.1-1.4,6.5-2.1,9.9-2.1c3.1,0,6.2,0.5,9.1,1.6c2.4,0.9,4.6,2.3,6.5,4v-4.2h17.5v49.4h-17.3v-5.2
						c-1.9,1.9-4.1,3.5-6.5,4.6C-160.1,64.5-163.2,65.2-166.4,65.2z M-161.4,27.9c-2.9,0-5.7,1.1-7.8,3.1c-1,1-1.8,2.2-2.3,3.5
						c-0.6,1.4-0.9,3-0.9,4.5c0,1.5,0.3,3,0.8,4.5c0.5,1.3,1.3,2.5,2.2,3.5c1,1,2.2,1.8,3.5,2.3c1.4,0.6,3,0.8,4.5,0.8
						c1.5,0,3-0.3,4.4-0.8c2.6-1,4.7-3.1,5.7-5.8c0.6-1.4,0.8-2.9,0.8-4.5c0.1-3-1.1-5.9-3.2-8C-155.7,29-158.5,27.9-161.4,27.9
						L-161.4,27.9z"/>
					<path id="Path_45" class="st1" d="M-166.4,13.2c-14.2,0-24.2,11.6-24.2,25.8s10,25.7,24.2,25.7c6.1,0,11.8-2.5,16-6.9h0.2v5.5
						h16.6V14.7h-16.8v4.7C-154.5,15.4-159.9,13.2-166.4,13.2 M-161.4,50.5c-6.8,0-11.4-4.7-11.4-11.4c-0.2-6.2,4.7-11.3,10.8-11.5
						c0.2,0,0.4,0,0.6,0c6.3,0,11.3,4.8,11.3,11.5C-150.1,45.7-154.8,50.5-161.4,50.5 M-166.4,12.5c3.1,0,6.3,0.5,9.2,1.6
						c2.2,0.8,4.2,2.1,6.1,3.6v-3.8h18.2v50.1h-18v-4.7c-1.8,1.7-3.8,3.1-6,4.1c-3,1.3-6.2,2-9.4,2c-3.5,0-6.9-0.7-10.1-2.1
						c-3-1.3-5.7-3.3-7.9-5.7c-9.3-10.8-9.3-26.7,0-37.4c2.2-2.4,4.9-4.4,7.9-5.7C-173.3,13.2-169.9,12.5-166.4,12.5L-166.4,12.5z
						 M-161.4,49.8c1.5,0,2.9-0.3,4.3-0.8c2.5-1,4.5-3,5.5-5.6c0.5-1.4,0.8-2.8,0.8-4.3c0-1.5-0.3-3-0.8-4.4
						c-0.5-1.3-1.3-2.4-2.3-3.4c-2-2-4.7-3-7.5-3c-2.8,0-5.6,1-7.6,3c-1,1-1.8,2.1-2.3,3.4c-0.6,1.4-0.8,2.9-0.8,4.4
						c0,1.5,0.2,2.9,0.8,4.3c1,2.6,3,4.6,5.5,5.6C-164.4,49.5-162.9,49.8-161.4,49.8z"/>
				</g>
				<g id="Path_14" transform="translate(232.166 46.351)">
					<path id="Path_46" class="st0" d="M-170.1,63.7h-17.5V35.8c0-2.3-0.8-4.6-2.3-6.3c-0.7-0.9-1.6-1.6-2.6-2
						c-1.1-0.5-2.3-0.8-3.5-0.8c-2.5,0.1-4.9,1.1-6.6,2.8c-1.8,1.6-2.9,3.9-3,6.3v27.9h-17.5V14.3h17.5v4.8c1.8-1.8,3.8-3.2,6.1-4.4
						c2.4-1.2,5-1.9,7.7-1.9c5.2,0,10.4,1.5,14.2,4c2.2,1.4,4.1,3.4,5.4,5.7c1.5,2.7,2.2,5.7,2.1,8.7L-170.1,63.7L-170.1,63.7z"/>
					<path id="Path_47" class="st1" d="M-191.8,13.2c-5.3,0-10.2,2.8-14,6.6h-0.2v-5.1h-16.8v48.7h16.8V35.8c0-4.8,4.9-9.5,10-9.5
						c5.4,0,8.7,4.7,8.7,9.5v27.5h16.8V31.3C-170.4,17.7-182.9,13.2-191.8,13.2 M-191.8,12.5c5.3,0,10.6,1.5,14.4,4
						c2.3,1.5,4.1,3.5,5.5,5.8c1.5,2.7,2.2,5.8,2.2,8.9v32.8H-188V35.8c0-2.2-0.8-4.4-2.2-6.1c-0.7-0.8-1.5-1.5-2.5-2
						c-1-0.5-2.2-0.7-3.3-0.7c-2.4,0.1-4.7,1.1-6.4,2.7c-1.7,1.5-2.8,3.7-2.9,6.1v28.3h-18.2V13.9h18.2v4.4c1.7-1.5,3.5-2.8,5.6-3.9
						C-197.2,13.2-194.5,12.5-191.8,12.5L-191.8,12.5z"/>
				</g>
			</g>
		</g>
	</g>
	<g id="treeplan-2" transform="translate(112.814 371.451)">
		<g id="Group_12">
			<g id="Group_11">
				<g id="Path_15" transform="translate(0 46.351)">
					<path id="Path_48" class="st2" d="M46,67.9c-3.6,0-7.2-0.7-10.5-2.1c-3.3-1.3-6.3-3.3-8.9-5.7c-2.6-2.4-4.7-5.3-6.2-8.5
						c-1.5-3.3-2.3-6.8-2.3-10.5c0-3.6,0.8-7.2,2.3-10.5c1.5-3.2,3.6-6.1,6.2-8.6c2.6-2.5,5.6-4.4,8.9-5.8c3.4-1.4,7-2.1,10.6-2.1
						c2.5,0,4.9,0.2,7.3,0.7c1.8,0.4,3.6,0.9,5.3,1.6c1.6,0.6,3,1.4,4.4,2.4l0.6,0.5l-0.4,0.8l-5.7,11.5L57,32.9l-1-0.7
						c-0.6-0.4-1.3-0.8-2-1c-1.8-0.7-3.6-1-5.5-1c-2.8,0-5.5,1.1-7.4,3.2c-2,2.1-3.1,4.9-3.1,7.7c0,2.9,1.1,5.7,3.1,7.8
						c1.9,2,4.6,3.2,7.4,3.2c2.7,0.1,5.3-0.7,7.5-2.1l1-0.7l0.6,1.1L63.3,62l0.4,0.8L63,63.3c-1.3,1-2.8,1.8-4.4,2.3
						c-1.7,0.7-3.5,1.2-5.3,1.6C50.9,67.6,48.5,67.9,46,67.9z"/>
					<path id="Path_49" class="st1" d="M46,15.2c-14.2,0-27,11.6-27,25.9c0,14.2,12.9,25.6,27,25.6c10.8,0,16.3-4.4,16.3-4.4
						l-5.7-11.7c-2.4,1.5-5.3,2.3-8.2,2.3c-6.4,0-11.6-5.3-11.6-12.1c-0.1-6.5,5.1-11.9,11.6-12c2.9-0.1,5.7,0.7,8.2,2.3l5.7-11.5
						C62.3,19.8,56.8,15.2,46,15.2 M46,13.1c11.5,0,17.4,4.8,17.7,5l1.3,1.1l-0.7,1.5l-5.7,11.5l-1.1,2.3l-2-1.5
						c-0.6-0.4-1.2-0.7-1.9-0.9c-1.6-0.6-3.3-0.9-5-0.9c-2.5,0-4.9,1-6.7,2.8C40,35.8,39,38.4,39,41c0,2.6,1,5.2,2.8,7.1
						c1.7,1.8,4.1,2.9,6.7,2.9c2.4,0,4.8-0.6,6.9-1.9l2-1.5l1.1,2.3l5.7,11.7L65,63l-1.3,1.1c-0.2,0.2-6.2,4.8-17.7,4.8
						c-3.8,0-7.5-0.7-10.9-2.2c-3.4-1.4-6.6-3.4-9.3-5.9c-2.7-2.5-4.9-5.5-6.5-8.8c-1.6-3.4-2.4-7.1-2.4-10.9c0-3.8,0.8-7.5,2.4-11
						c1.5-3.4,3.7-6.4,6.4-8.9c2.7-2.5,5.8-4.6,9.3-6C38.5,13.9,42.2,13.1,46,13.1L46,13.1z"/>
				</g>
				<g id="Path_16" transform="translate(67.849 46.351)">
					<path id="Path_50" class="st2" d="M21.6,67.9c-3.5,0-7-0.7-10.2-2.1c-3-1.3-5.8-3.3-8-5.8c-9.4-10.9-9.4-27,0-37.9
						c2.2-2.5,5-4.4,8-5.8c3.2-1.4,6.7-2.1,10.2-2.1c3.2,0,6.3,0.5,9.3,1.7c2,0.8,3.9,1.8,5.6,3.2v-3.4h18.9v50.8H36.6v-4.2
						c-1.7,1.5-3.5,2.7-5.5,3.6C28.1,67.2,24.8,67.9,21.6,67.9z M26.6,30.6c-2.7,0-5.4,1-7.3,2.9c-0.9,0.9-1.7,2.1-2.2,3.3
						c-0.5,1.3-0.8,2.8-0.8,4.2c0,1.4,0.2,2.9,0.7,4.2c0.5,1.2,1.2,2.3,2.1,3.2c0.9,0.9,2,1.6,3.2,2.1c1.4,0.5,2.8,0.8,4.3,0.8
						c1.4,0,2.8-0.3,4.1-0.8c2.4-1,4.4-2.9,5.3-5.4c0.5-1.3,0.8-2.8,0.8-4.2c0-1.5-0.3-2.9-0.8-4.2c-0.5-1.2-1.2-2.3-2.2-3.3
						C31.9,31.6,29.3,30.6,26.6,30.6L26.6,30.6z"/>
					<path id="Path_51" class="st1" d="M21.6,15.2C7.3,15.2-2.7,26.8-2.7,41.1s10,25.7,24.2,25.7c6.1,0,11.8-2.5,16-6.9h0.2v5.5
						h16.6V16.7H37.5v4.7C33.5,17.4,28.1,15.2,21.6,15.2 M26.6,52.5c-6.8,0-11.4-4.7-11.4-11.4C15,34.9,19.8,29.8,26,29.6
						c0.2,0,0.4,0,0.6,0c6.3,0,11.3,4.8,11.3,11.5C37.9,47.7,33.1,52.5,26.6,52.5 M21.6,13.1c3.3,0,6.6,0.6,9.7,1.7
						c1.4,0.6,2.8,1.3,4.1,2.1v-2.4h21.1v53H35.6v-3.1c-4.1,2.9-9,4.5-14,4.5c-3.7,0-7.3-0.7-10.7-2.2c-3.2-1.4-6-3.5-8.4-6
						c-9.8-11.3-9.8-28,0-39.3c2.3-2.6,5.2-4.6,8.4-6C14.3,13.8,17.9,13.1,21.6,13.1L21.6,13.1z M26.6,50.3c5.4,0,9.2-3.8,9.2-9.3
						c0-1.3-0.2-2.6-0.7-3.8c-0.4-1.1-1.1-2.1-1.9-2.9c-1.7-1.7-4.1-2.6-6.5-2.6c-2.5,0-4.8,0.9-6.6,2.6c-0.8,0.8-1.5,1.8-2,2.9
						c-0.5,1.2-0.7,2.5-0.7,3.8c0,1.3,0.2,2.6,0.7,3.8c0.4,1.1,1,2.1,1.8,2.9C21.6,49.5,24.1,50.4,26.6,50.3L26.6,50.3z"/>
				</g>
				<g id="Path_17" transform="translate(165.105 46.351)">
					<path id="Path_52" class="st2" d="M-15.9,66.4h-18.9V15.6h18.9v5.3c0.7-0.8,1.5-1.5,2.3-2.2c1.5-1.3,3.2-2.3,4.9-3.1
						c2.1-0.9,4.5-1.4,6.8-1.4c2.8,0,5.5,0.6,8.1,1.6c1.1,0.4,2.2,1,3.2,1.6l0.7,0.5l-0.4,0.8L2.7,33l-0.6,1.2l-1-0.9
						c-0.6-0.5-1.4-0.9-2.1-1.2c-1.9-0.8-3.9-1.2-6-1.2c-3.3,0-5.8,1.3-7.4,4c-0.9,1.5-1.4,3.1-1.6,4.9L-15.9,66.4L-15.9,66.4z"/>
					<path id="Path_53" class="st1" d="M-1.8,15.2c-9.6,0-14.9,8.5-14.9,8.5h-0.2v-7h-16.8v48.7h16.8V39.7c0-1.2,1.2-9.9,10-9.9
						c5.6,0,8.7,2.7,8.7,2.7l7-14.2C5.6,16.3,1.9,15.2-1.8,15.2 M-1.8,13.1c4.2,0,8.3,1.2,11.8,3.4l1.5,1l-0.8,1.6l-7,14.2l-1.2,2.5
						l-2-1.8c-0.6-0.4-1.2-0.8-1.9-1.1C-3.2,32.3-5.1,32-7,32c-1.4,0-2.9,0.3-4.1,1c-1,0.6-1.7,1.4-2.3,2.4
						c-0.8,1.3-1.3,2.8-1.4,4.3v27.8h-21.1v-53h21.1v3.8c0.2-0.2,0.4-0.3,0.6-0.5c1.6-1.3,3.3-2.4,5.2-3.2
						C-6.8,13.6-4.3,13.1-1.8,13.1L-1.8,13.1z"/>
				</g>
				<g id="Path_18" transform="translate(237.887)">
					<path id="Path_54" class="st2" d="M-24.3,114.2c-3.3,0-6.6-0.7-9.6-2.1c-2-0.9-3.9-2.1-5.5-3.6v4.2h-18.7V29h18.9v36.3
						c1.7-1.3,3.6-2.4,5.6-3.2c3-1.1,6.1-1.7,9.3-1.7c3.5,0,7,0.7,10.2,2.1c3,1.4,5.8,3.3,8,5.8c9.4,10.9,9.4,27,0,37.9
						c-2.2,2.5-5,4.4-8,5.8C-17.3,113.5-20.7,114.2-24.3,114.2z M-29.3,77c-2.7,0-5.3,1-7.3,2.9c-0.9,0.9-1.7,2.1-2.2,3.3
						c-0.5,1.3-0.8,2.8-0.8,4.2c0,1.4,0.2,2.9,0.8,4.2c1,2.5,2.9,4.4,5.3,5.4c1.3,0.5,2.7,0.8,4.1,0.8c1.5,0,2.9-0.2,4.3-0.8
						c2.5-1,4.4-2.9,5.3-5.4c0.5-1.3,0.8-2.8,0.7-4.2c0-1.5-0.3-2.9-0.8-4.2c-0.5-1.2-1.2-2.3-2.2-3.3C-23.9,78-26.6,76.9-29.3,77z"
						/>
					<path id="Path_55" class="st1" d="M-24.3,113.2C-10,113.2,0,101.7,0,87.4s-10-25.8-24.2-25.8c-6.6,0-12,2.2-16,6.1V30H-57v81.7
						h16.6v-5.5h0.2C-36.1,110.7-30.3,113.2-24.3,113.2 M-29.3,75.9c6.2-0.1,11.3,4.8,11.4,10.9c0,0.2,0,0.4,0,0.6
						c0,6.6-4.6,11.4-11.4,11.4c-6.6,0-11.3-4.7-11.3-11.4C-40.6,80.7-35.6,75.9-29.3,75.9 M-24.3,115.3c-3.5,0-6.9-0.7-10-2.2
						c-1.4-0.6-2.8-1.4-4-2.3v3.1h-20.9V27.9h21.1v35.3c1.3-0.8,2.7-1.5,4.1-2.1c3.1-1.2,6.4-1.8,9.7-1.7c3.7,0,7.3,0.7,10.7,2.2
						c3.2,1.4,6,3.5,8.4,6c9.8,11.3,9.8,28,0,39.3c-2.3,2.6-5.2,4.6-8.4,6C-17,114.6-20.6,115.3-24.3,115.3L-24.3,115.3z M-29.3,78
						c-2.4,0-4.8,0.9-6.5,2.6c-0.8,0.8-1.5,1.8-1.9,2.9c-0.5,1.2-0.7,2.5-0.7,3.8c0,5.5,3.8,9.3,9.2,9.3c2.5,0.1,4.9-0.8,6.8-2.6
						c0.8-0.8,1.4-1.8,1.8-2.9c0.5-1.2,0.7-2.5,0.7-3.8c0-1.3-0.2-2.6-0.7-3.8c-0.4-1.1-1.1-2.1-2-2.9C-24.5,78.9-26.8,78-29.3,78
						L-29.3,78z"/>
				</g>
				<g id="Path_19" transform="translate(330.245 46.351)">
					<path id="Path_56" class="st2" d="M-57.2,67.9c-4.2,0-8.4-0.6-12.3-2c-3.5-1.2-6.8-3.1-9.6-5.5c-2.7-2.4-4.8-5.3-6.2-8.5
						c-1.5-3.4-2.2-7.1-2.2-10.8c-0.1-7.5,3.2-14.6,8.9-19.4c5.6-4.8,13.2-7.5,21.5-7.5c8.2,0,15.7,2.7,21.3,7.5
						c5.7,4.9,8.9,12,8.8,19.4c0,3.7-0.8,7.4-2.3,10.8c-1.5,3.3-3.6,6.2-6.3,8.5c-2.8,2.4-6,4.3-9.6,5.5
						C-49.1,67.2-53.1,67.9-57.2,67.9z M-57.3,30.6c-2.7,0-5.4,1-7.3,2.9c-0.9,0.9-1.7,2.1-2.2,3.3c-0.5,1.3-0.8,2.8-0.8,4.2
						c0,1.4,0.2,2.9,0.7,4.2c0.5,1.2,1.2,2.3,2.1,3.2c0.9,0.9,2,1.6,3.2,2.1c1.4,0.5,2.8,0.8,4.3,0.8c1.4,0,2.8-0.2,4.1-0.8
						c2.4-1,4.4-2.9,5.3-5.4c0.5-1.3,0.8-2.8,0.8-4.2c0-1.5-0.3-2.9-0.8-4.2c-0.5-1.2-1.2-2.3-2.2-3.3C-52,31.6-54.6,30.6-57.3,30.6
						z"/>
					<path id="Path_57" class="st1" d="M-57.2,15.2c-16.4,0-29.3,10.6-29.3,25.8c0,15,11.8,25.7,29.3,25.7
						c16.8,0,29.1-10.7,29.1-25.7C-28.1,25.9-41,15.2-57.2,15.2 M-57.3,52.5c-6.8,0-11.4-4.7-11.4-11.4c-0.2-6.2,4.7-11.3,10.8-11.5
						c0.2,0,0.4,0,0.6,0c6.3,0,11.3,4.8,11.3,11.5C-46,47.7-50.7,52.5-57.3,52.5 M-57.2,13.1c8.4,0,16.2,2.7,22,7.7
						c5.9,5.1,9.3,12.5,9.2,20.2c0,3.9-0.8,7.7-2.4,11.2c-1.5,3.4-3.8,6.4-6.6,8.9c-2.9,2.5-6.3,4.5-9.9,5.7c-4,1.4-8.1,2.1-12.3,2
						c-4.3,0-8.6-0.6-12.7-2c-3.7-1.2-7.1-3.2-10-5.7c-2.8-2.5-5-5.5-6.5-8.9c-1.5-3.5-2.3-7.4-2.3-11.2c-0.1-7.8,3.3-15.2,9.2-20.2
						C-73.6,15.9-65.7,13.1-57.2,13.1z M-57.3,50.3c5.4,0,9.2-3.8,9.2-9.3c0-1.3-0.2-2.6-0.7-3.8c-0.4-1.1-1.1-2.1-1.9-2.9
						c-1.7-1.7-4.1-2.6-6.5-2.6c-2.5,0-4.8,0.9-6.6,2.6c-0.8,0.8-1.5,1.8-2,2.9c-0.5,1.2-0.7,2.5-0.7,3.8c0,1.3,0.2,2.6,0.7,3.8
						c0.4,1.1,1,2.1,1.8,2.9C-62.2,49.5-59.8,50.4-57.3,50.3z"/>
				</g>
				<g id="Path_20" transform="translate(425.235 46.351)">
					<path id="Path_58" class="st2" d="M-63.5,66.4h-18.9V37.8c0-2.1-0.7-4.2-2.1-5.9c-1.4-1.7-3.4-2.6-5.6-2.6
						c-2.3,0.1-4.5,1-6.1,2.6c-1.7,1.5-2.7,3.6-2.8,5.8v28.6H-118V15.6H-99v3.9c1.5-1.3,3.2-2.5,5.1-3.4c2.5-1.3,5.2-1.9,8-2
						c5.4,0,10.7,1.5,14.6,4.1c2.3,1.5,4.2,3.5,5.6,5.9c1.5,2.8,2.3,5.9,2.2,9.1L-63.5,66.4L-63.5,66.4z"/>
					<path id="Path_59" class="st1" d="M-85.9,15.2c-5.3,0-10.2,2.8-14,6.6h-0.2v-5.1h-16.8v48.7h16.8V37.8c0-4.8,4.9-9.5,10-9.5
						c5.4,0,8.7,4.7,8.7,9.5v27.5h16.8V33.3C-64.6,19.7-77,15.2-85.9,15.2 M-85.9,13.1c2.6,0,5.1,0.3,7.6,1c2.7,0.7,5.2,1.8,7.6,3.3
						c5.4,3.6,8.3,9.1,8.3,15.9v34.2h-21.1V37.8c0-4.8-3.4-7.4-6.6-7.4c-3.9,0-7.9,3.7-7.9,7.4v29.7H-119v-53H-98v2.8
						c1.1-0.8,2.3-1.5,3.5-2.2C-91.8,13.8-88.9,13.1-85.9,13.1L-85.9,13.1z"/>
				</g>
			</g>
		</g>
	</g>
</g>
</svg>
