<?xml version="1.0" encoding="utf-8"?>
<!-- Generator: Adobe Illustrator 23.0.4, SVG Export Plug-In . SVG Version: 6.00 Build 0)  -->
<svg version="1.1" id="Layer_1" xmlns="http://www.w3.org/2000/svg" xmlns:xlink="http://www.w3.org/1999/xlink" x="0px" y="0px"
	 viewBox="0 0 600.5 157.9" style="enable-background:new 0 0 600.5 157.9;" xml:space="preserve">
<style type="text/css">
	.st0{fill:#1A1818;}
	.st1{fill:#1A1A1A;}
	.st2{fill:#FFFFFF;}
</style>
<g id="Group_17_1_" transform="translate(-84.76 -59.391)">
	<g id="treeplan_1_" transform="translate(587.109 63.157)">
		<g id="Group_10_1_">
			<g id="Group_9_1_">
				<g id="Path_11_1_" transform="translate(-265.655 -34.38)">
					<path class="st0" d="M151.6,167.8h-0.4h-16.9H134v-0.4V93.7v-0.4h0.4H151h0.4v0.4v4.8c1.8-1.9,4.1-3.5,6.6-4.6
						c2.9-1.3,6.1-2,9.3-2c3.5,0,6.9,0.7,10,2.1c3,1.3,5.6,3.2,7.8,5.6c4.4,4.8,6.9,11.4,6.9,18.5c0,7.1-2.4,13.7-6.9,18.6
						c-2.2,2.4-4.8,4.3-7.8,5.7c-3.1,1.4-6.4,2.1-10,2.1c-3.3,0-6.3-0.5-9.1-1.6c-2.4-0.9-4.6-2.3-6.6-4v28.7V167.8z M162.2,107
						c-1.6,0-3.1,0.3-4.4,0.8c-1.3,0.5-2.5,1.3-3.5,2.3c-1,1-1.8,2.2-2.3,3.5c-0.5,1.4-0.8,2.9-0.8,4.5c0,3.1,1.1,6,3.2,8.1
						c2,2,4.8,3.1,7.8,3.1c3,0,5.8-1.1,7.9-3.1c1-1,1.8-2.2,2.4-3.5c0.6-1.4,0.9-2.9,0.9-4.5c0-1.6-0.3-3.1-0.8-4.5
						c-0.5-1.3-1.3-2.5-2.2-3.5c-1-1-2.2-1.8-3.5-2.3C165.4,107.3,163.8,107,162.2,107z"/>
					<path class="st1" d="M151.2,167.5V138c4,3.9,9.4,6.1,16,6.1c14.3,0,24.3-11.6,24.3-26c0-14.3-10-25.9-24.3-25.9
						c-6.7,0-12.4,3-16,7H151v-5.5h-16.7v73.8H151.2 M162.2,106.7c6.9,0,11.5,4.8,11.5,11.5c0,6.8-5.1,11.5-11.5,11.5
						c-6.3,0-11.4-4.8-11.4-11.5C150.8,111.4,155.6,106.7,162.2,106.7 M151.9,168.2h-0.7h-16.9h-0.7v-0.7V93.7V93h0.7H151h0.7v0.7v4
						c1.7-1.7,3.8-3.1,6.1-4.1c3-1.4,6.2-2,9.5-2c3.6,0,7,0.7,10.1,2.1c3,1.3,5.7,3.2,7.9,5.7c4.5,4.9,7,11.6,7,18.8
						c0,7.2-2.5,13.9-7,18.8c-2.3,2.5-4.9,4.4-7.9,5.7c-3.1,1.4-6.5,2.1-10.1,2.1c-3.3,0-6.4-0.5-9.2-1.6c-2.2-0.9-4.3-2.1-6.1-3.6
						v27.9V168.2z M162.2,107.4c-1.5,0-3,0.3-4.3,0.8c-1.3,0.5-2.4,1.3-3.4,2.2c-1,1-1.7,2.1-2.2,3.4c-0.5,1.3-0.8,2.8-0.8,4.3
						c0,1.6,0.3,3,0.8,4.4c0.5,1.3,1.3,2.4,2.3,3.4c2,2,4.6,3,7.5,3c2.9,0,5.6-1.1,7.6-3c1-1,1.7-2.1,2.3-3.4
						c0.6-1.4,0.8-2.8,0.8-4.4c0-1.6-0.3-3-0.8-4.4c-0.5-1.3-1.2-2.4-2.2-3.4c-0.9-1-2.1-1.7-3.4-2.2
						C165.3,107.6,163.8,107.4,162.2,107.4z"/>
				</g>
				<g id="Path_12_1_" transform="translate(-206.456 -63.157)">
					<path class="st0" d="M157.5,171.8h-0.4h-16.9h-0.4v-0.4V89.4V89h0.4h16.9h0.4v0.4v82.1V171.8z"/>
					<path class="st1" d="M140.3,89.4v82.1h16.9V89.4H140.3 M139.6,88.6h0.7h16.9h0.7v0.7v82.1v0.7h-0.7h-16.9h-0.7v-0.7V89.4V88.6z
						"/>
				</g>
				<g id="Path_13_1_" transform="translate(-183.919 -34.38)">
					<path class="st0" d="M166.9,144.4c-3.5,0-6.9-0.7-10-2.1c-3-1.3-5.6-3.2-7.8-5.6c-4.4-4.8-6.9-11.4-6.9-18.5
						c0-7.1,2.4-13.7,6.9-18.6c2.2-2.4,4.8-4.3,7.8-5.7c3.1-1.4,6.4-2.1,10-2.1c3.3,0,6.3,0.5,9.1,1.6c2.4,0.9,4.6,2.3,6.6,4v-3.9
						v-0.4h0.4h16.9h0.4v0.4v49v0.4h-0.4h-16.7h-0.4v-0.4v-4.8c-1.8,1.9-4.1,3.5-6.6,4.6C173.3,143.8,170.1,144.4,166.9,144.4z
						 M172,107c-3,0-5.8,1.1-7.9,3.1c-1,1-1.8,2.2-2.4,3.5c-0.6,1.4-0.9,2.9-0.9,4.5c0,1.6,0.3,3.1,0.8,4.5c0.5,1.3,1.3,2.5,2.2,3.5
						c1,1,2.2,1.8,3.5,2.3c1.4,0.5,2.9,0.8,4.6,0.8c1.6,0,3.1-0.3,4.4-0.8c1.3-0.5,2.5-1.3,3.5-2.3c1-1,1.8-2.2,2.3-3.5
						c0.5-1.4,0.8-2.9,0.8-4.5c0-3.1-1.1-6-3.2-8.1C177.7,108.1,174.9,107,172,107z"/>
					<path class="st1" d="M166.9,92.3c-14.3,0-24.3,11.6-24.3,26c0,14.3,10,25.9,24.3,25.9c6.7,0,12.4-3,16-7h0.2v5.5h16.7v-49
						h-16.9v4.7C178.9,94.5,173.5,92.3,166.9,92.3 M172,129.7c-6.9,0-11.5-4.8-11.5-11.5c0-6.8,5.1-11.5,11.5-11.5
						c6.3,0,11.4,4.8,11.4,11.5C183.3,124.9,178.5,129.7,172,129.7 M166.9,91.5c3.3,0,6.4,0.5,9.2,1.6c2.2,0.9,4.3,2.1,6.1,3.6v-3.1
						V93h0.7h16.9h0.7v0.7v49v0.7h-0.7h-16.7h-0.7v-0.7v-4c-1.7,1.7-3.8,3.1-6.1,4.1c-3,1.4-6.2,2-9.5,2c-3.6,0-7-0.7-10.1-2.1
						c-3-1.3-5.7-3.2-7.9-5.7c-4.5-4.9-7-11.6-7-18.8c0-7.2,2.5-13.9,7-18.8c2.3-2.5,4.9-4.4,7.9-5.7
						C159.9,92.3,163.3,91.5,166.9,91.5z M172,129c1.5,0,3-0.3,4.3-0.8c1.3-0.5,2.4-1.3,3.4-2.2c1-1,1.7-2.1,2.2-3.4
						c0.5-1.3,0.8-2.8,0.8-4.3c0-1.6-0.3-3-0.8-4.4c-0.5-1.3-1.3-2.4-2.3-3.4c-2-2-4.6-3-7.5-3c-2.9,0-5.6,1.1-7.6,3
						c-1,1-1.7,2.1-2.3,3.4c-0.6,1.4-0.8,2.8-0.8,4.4c0,1.6,0.3,3,0.8,4.4c0.5,1.3,1.2,2.4,2.2,3.4c0.9,1,2.1,1.7,3.4,2.2
						C168.9,128.7,170.4,129,172,129z"/>
				</g>
				<g id="Path_14_1_" transform="translate(-121.513 -34.38)">
					<path class="st0" d="M201.8,143h-0.4h-16.9h-0.4v-0.4V115c0-2.4-0.8-4.7-2.3-6.4c-0.8-0.9-1.6-1.6-2.6-2
						c-1.1-0.5-2.3-0.8-3.5-0.8c-2.3,0-4.8,1-6.7,2.8c-1.9,1.8-3,4.1-3,6.3v27.7v0.4h-0.4h-16.9h-0.4v-0.4v-49v-0.4h0.4h16.9h0.4
						v0.4v4.5c1.9-1.9,4-3.3,6.1-4.4c2.5-1.3,5.1-1.9,7.7-1.9c5.3,0,10.5,1.5,14.3,4c2.3,1.5,4.1,3.5,5.4,5.7
						c1.4,2.5,2.1,5.5,2.1,8.8v32.3V143z"/>
					<path class="st1" d="M180,92.3c-5.3,0-10.2,2.8-14,6.6h-0.2v-5.2h-16.9v49h16.9V115c0-4.9,5-9.5,10-9.5c5.4,0,8.8,4.7,8.8,9.5
						v27.7h16.9v-32.3C201.4,96.7,188.9,92.3,180,92.3 M180,91.5c5.3,0,10.6,1.5,14.5,4.1c2.4,1.6,4.2,3.5,5.5,5.8
						c1.4,2.6,2.2,5.6,2.2,8.9v32.3v0.7h-0.7h-16.9h-0.7v-0.7V115c0-2.3-0.8-4.5-2.2-6.1c-0.7-0.8-1.6-1.5-2.5-2
						c-1-0.5-2.2-0.7-3.4-0.7c-2.2,0-4.6,1-6.4,2.8c-1.8,1.7-2.9,4-2.9,6.1v27.7v0.7h-0.7h-16.9h-0.7v-0.7v-49V93h0.7h16.9h0.7v0.7
						v3.7c1.8-1.6,3.7-2.9,5.6-3.9C174.7,92.2,177.3,91.5,180,91.5z"/>
				</g>
			</g>
		</g>
	</g>
	<g id="treeplan-2_1_" transform="translate(88.76 63.391)">
		<g id="Group_12_1_">
			<g id="Group_11_1_">
				<g id="Path_15_1_" transform="translate(-88.76 -34.463)">
					<path class="st2" d="M129,145.5c-3.6,0-7.3-0.7-10.7-2.1c-3.4-1.4-6.4-3.3-9.1-5.8c-2.7-2.5-4.8-5.4-6.3-8.6
						c-1.6-3.4-2.4-7-2.4-10.7c0-3.7,0.8-7.3,2.4-10.7c1.5-3.3,3.6-6.2,6.3-8.7c2.7-2.5,5.7-4.5,9.1-5.9c3.5-1.4,7.1-2.2,10.8-2.2
						c2.6,0,5.1,0.3,7.4,0.7c1.9,0.4,3.7,1,5.4,1.7c2.9,1.2,4.4,2.5,4.5,2.5l0.9,0.7l-0.5,1l-5.7,11.5l-0.8,1.5l-1.4-1
						c0,0-0.8-0.5-2-1c-1.2-0.5-3-1-5.4-1c-2.7,0-5.3,1.1-7.2,3.1c-1.9,2-3,4.7-3,7.5c0,2.9,1.1,5.6,3,7.6c1.9,2,4.5,3.1,7.2,3.1
						c2.4,0,4.3-0.6,5.5-1c1.2-0.5,1.9-1,1.9-1l1.4-1l0.7,1.5l5.7,11.7l0.5,1l-0.9,0.7c-0.1,0.1-1.6,1.2-4.5,2.4
						c-1.7,0.7-3.5,1.2-5.4,1.6C134.1,145.3,131.6,145.5,129,145.5z"/>
					<path class="st1" d="M129,92.3c-14.2,0-27.1,11.6-27.1,26.1c0,14.3,13,25.8,27.1,25.8c10.9,0,16.4-4.4,16.4-4.4l-5.7-11.7
						c0,0-3.1,2.3-8.2,2.3c-6.4,0-11.6-5.3-11.6-12.1c0-6.7,5.2-12,11.6-12c5.1,0,8.2,2.3,8.2,2.3l5.7-11.5
						C145.4,96.9,139.9,92.3,129,92.3 M129,89.4c2.7,0,5.3,0.3,7.7,0.8c2,0.4,3.9,1,5.6,1.7c3,1.3,4.7,2.6,4.8,2.7l1.7,1.4l-1,2
						l-5.7,11.5l-1.5,3.1l-2.7-2c-0.1-0.1-0.7-0.5-1.8-0.9c-1.5-0.6-3.1-0.9-4.8-0.9c-2.3,0-4.5,0.9-6.2,2.6
						c-1.7,1.7-2.6,4.1-2.6,6.5c0,2.5,0.9,4.9,2.6,6.6c1.7,1.7,3.8,2.7,6.2,2.7c1.7,0,3.3-0.3,4.8-0.9c1.1-0.4,1.7-0.8,1.8-0.9
						l2.7-2.1l1.5,3.1l5.7,11.7l1,2.1l-1.8,1.4c-0.2,0.1-1.8,1.4-4.8,2.6c-1.8,0.7-3.6,1.3-5.6,1.7c-2.4,0.5-5,0.7-7.7,0.7
						c-3.8,0-7.6-0.7-11.3-2.2c-3.5-1.4-6.7-3.5-9.5-6.1c-2.8-2.6-5.1-5.7-6.6-9.1c-1.7-3.6-2.5-7.4-2.5-11.3
						c0-3.9,0.8-7.7,2.5-11.3c1.6-3.4,3.8-6.5,6.6-9.2c2.8-2.6,6-4.7,9.5-6.1C121.3,90.2,125.1,89.4,129,89.4z"/>
				</g>
				<g id="Path_16_1_" transform="translate(-46.635 -34.463)">
					<path class="st2" d="M130.5,145.5c-3.7,0-7.2-0.7-10.4-2.1c-3.1-1.4-5.8-3.3-8.2-5.9c-4.6-5-7.2-11.9-7.2-19.3
						c0-7.4,2.5-14.2,7.2-19.3c2.3-2.5,5.1-4.5,8.2-5.9c3.2-1.4,6.7-2.2,10.4-2.2c3.4,0,6.6,0.6,9.5,1.7c1.8,0.7,3.6,1.6,5.1,2.8
						v-1.6v-1.4h1.4h16.9h1.4v1.4v49v1.4h-1.4h-16.7h-1.4v-1.4v-2.4c-1.5,1.3-3.2,2.3-5.1,3.2C137.1,144.8,133.9,145.5,130.5,145.5z
						 M135.5,108.1c-2.8,0-5.3,1-7.1,2.8c-0.9,0.9-1.6,2-2.1,3.2c-0.5,1.3-0.8,2.7-0.8,4.1c0,1.5,0.2,2.8,0.7,4.1
						c0.5,1.2,1.1,2.3,2,3.1c1.8,1.8,4.3,2.8,7.3,2.8c1.4,0,2.8-0.3,4-0.7c1.2-0.5,2.2-1.2,3.1-2.1c0.9-0.9,1.6-1.9,2-3.1
						c0.5-1.3,0.7-2.6,0.7-4.1c0-1.5-0.3-2.9-0.8-4.1c-0.5-1.2-1.2-2.3-2.1-3.2C140.7,109.1,138.2,108.1,135.5,108.1z"/>
					<path class="st1" d="M130.5,92.3c-14.3,0-24.3,11.6-24.3,26s10,25.9,24.3,25.9c6.7,0,12.4-3,16-7h0.2v5.5h16.7v-49h-16.9v4.7
						C142.5,94.5,137,92.3,130.5,92.3 M135.5,129.7c-6.9,0-11.5-4.8-11.5-11.5c0-6.8,5.1-11.5,11.5-11.5c6.3,0,11.4,4.8,11.4,11.5
						C146.9,124.9,142.1,129.7,135.5,129.7 M130.5,89.4c3.6,0,7,0.6,10,1.8c1.1,0.4,2.2,0.9,3.2,1.5v-1.9h2.8h16.9h2.8v2.8v49v2.8
						h-2.8h-16.7h-2.8V143c-1,0.6-2,1.2-3,1.7c-3.3,1.5-6.7,2.2-10.3,2.2c-3.9,0-7.6-0.8-11-2.3c-3.3-1.5-6.2-3.5-8.6-6.2
						c-4.9-5.3-7.5-12.5-7.5-20.2c0-7.7,2.7-14.9,7.5-20.3c2.5-2.7,5.4-4.8,8.6-6.2C122.9,90.2,126.6,89.4,130.5,89.4z M135.5,126.8
						c1.3,0,2.4-0.2,3.5-0.6c1-0.4,1.9-1,2.6-1.7c0.7-0.8,1.3-1.6,1.7-2.7c0.4-1.1,0.6-2.3,0.6-3.6c0-1.3-0.2-2.5-0.7-3.6
						c-0.4-1-1-1.9-1.8-2.7c-1.6-1.6-3.7-2.4-6-2.4c-2.4,0-4.6,0.9-6.1,2.4c-0.8,0.8-1.4,1.7-1.8,2.7c-0.4,1.1-0.7,2.3-0.7,3.6
						c0,2.5,0.8,4.7,2.3,6.2C130.8,126,132.9,126.8,135.5,126.8z"/>
				</g>
				<g id="Path_17_1_" transform="translate(15.771 -34.463)">
					<path class="st2" d="M127.7,144.1h-1.4h-16.9H108v-1.4v-49v-1.4h1.4h16.9h1.4v1.4V97c0.5-0.5,1.1-1.1,1.7-1.6
						c1.6-1.3,3.3-2.4,5-3.1c2.2-1,4.6-1.4,7-1.4c6.7,0,11.3,3.2,11.5,3.3l1,0.7l-0.5,1.1l-7.1,14.3l-0.8,1.7l-1.4-1.2
						c-0.1,0-0.8-0.6-2-1.2c-1.2-0.5-3.2-1.2-5.8-1.2c-3.2,0-5.6,1.3-7.1,3.8c-1.2,2.1-1.5,4.3-1.5,4.7v25.8V144.1z"/>
					<path class="st1" d="M141.5,92.3c-9.6,0-15,8.5-15,8.5h-0.2v-7.1h-16.9v49h16.9v-25.8c0-1.2,1.2-9.9,10-9.9
						c5.6,0,8.8,2.7,8.8,2.7l7.1-14.3C152.2,95.3,147.8,92.3,141.5,92.3 M141.5,89.4c2.9,0,6,0.6,8.8,1.7c2.1,0.9,3.4,1.7,3.5,1.8
						l2,1.4l-1.1,2.2l-7.1,14.3l-1.7,3.3l-2.7-2.4c-0.1-0.1-0.7-0.5-1.8-1c-1.6-0.7-3.3-1-5.1-1c-2.6,0-4.5,1-5.8,3
						c-1.1,1.7-1.3,3.6-1.4,4v25.8v2.8h-2.8h-16.9h-2.8v-2.8v-49v-2.8h2.8h16.9h2.8v2.8v0.2c1.5-1.2,3.1-2.2,4.8-2.9
						C136.4,90,138.9,89.4,141.5,89.4z"/>
				</g>
				<g id="Path_18_1_" transform="translate(58.935 -63.24)">
					<path class="st2" d="M149.7,174.3c-3.4,0-6.7-0.7-9.8-2.1c-1.8-0.8-3.5-1.9-5.1-3.2v2.4v1.4h-1.4h-16.7h-1.4v-1.4V89.4v-1.4
						h1.4h16.9h1.4v1.4v34.7c1.6-1.1,3.3-2.1,5.1-2.8c2.9-1.1,6.1-1.7,9.5-1.7c3.7,0,7.2,0.7,10.4,2.2c3.1,1.4,5.8,3.4,8.2,5.9
						c4.6,5.1,7.2,11.9,7.2,19.3c0,7.4-2.5,14.2-7.2,19.3c-2.3,2.5-5.1,4.5-8.2,5.9C156.9,173.6,153.4,174.3,149.7,174.3z
						 M144.6,136.9c-2.7,0-5.2,1-7,2.8c-0.9,0.9-1.6,2-2.1,3.2c-0.5,1.3-0.8,2.7-0.8,4.1c0,1.5,0.3,2.8,0.7,4.1
						c0.5,1.2,1.2,2.3,2,3.1c0.9,0.9,1.9,1.6,3.1,2.1c1.2,0.5,2.6,0.7,4,0.7c3,0,5.5-1,7.3-2.8c0.9-0.9,1.5-1.9,2-3.1
						c0.5-1.2,0.7-2.6,0.7-4.1c0-1.5-0.3-2.9-0.8-4.1c-0.5-1.2-1.2-2.3-2.1-3.2C149.9,137.9,147.4,136.9,144.6,136.9z"/>
					<path class="st1" d="M149.7,172.9c14.3,0,24.3-11.5,24.3-25.9c0-14.3-10-26-24.3-26c-6.6,0-12,2.2-16,6.1V89.4h-16.9v82.1h16.7
						v-5.5h0.2C137.3,169.9,143,172.9,149.7,172.9 M144.6,135.5c6.4,0,11.4,4.8,11.4,11.5c0,6.7-4.6,11.5-11.4,11.5
						c-6.6,0-11.4-4.8-11.4-11.5C133.3,140.2,138.3,135.5,144.6,135.5 M149.7,175.7c-3.6,0-7.1-0.8-10.3-2.2c-1.1-0.5-2.1-1-3-1.7
						v2.5h-2.8h-16.7h-2.8v-2.8V89.4v-2.8h2.8h16.9h2.8v2.8v32.1c1-0.6,2.1-1.1,3.2-1.5c3.1-1.2,6.4-1.8,10-1.8
						c3.9,0,7.6,0.8,11,2.3c3.3,1.5,6.2,3.6,8.6,6.2c4.9,5.3,7.5,12.5,7.5,20.3c0,7.7-2.7,14.9-7.5,20.2c-2.5,2.7-5.4,4.8-8.6,6.2
						C157.3,174.9,153.6,175.7,149.7,175.7z M144.6,138.3c-2.3,0-4.5,0.9-6,2.4c-0.8,0.8-1.4,1.7-1.8,2.7c-0.4,1.1-0.7,2.3-0.7,3.6
						c0,1.3,0.2,2.5,0.6,3.6c0.4,1,1,1.9,1.7,2.7c0.7,0.7,1.6,1.3,2.6,1.7c1.1,0.4,2.2,0.6,3.5,0.6c2.6,0,4.7-0.8,6.3-2.4
						c1.5-1.5,2.3-3.7,2.3-6.2c0-1.3-0.2-2.5-0.7-3.6c-0.4-1-1-1.9-1.8-2.7C149.2,139.2,147,138.3,144.6,138.3z"/>
				</g>
				<g id="Path_19_1_" transform="translate(114.928 -34.463)">
					<path class="st2" d="M153.6,145.5c-4.5,0-8.7-0.7-12.5-2c-3.7-1.3-7-3.2-9.8-5.6c-2.8-2.4-4.9-5.4-6.4-8.7
						c-1.5-3.4-2.2-7.1-2.2-11c0-3.9,0.8-7.7,2.4-11.1c1.5-3.3,3.8-6.2,6.6-8.7c5.7-4.9,13.4-7.6,21.9-7.6c8.3,0,16,2.7,21.6,7.6
						c2.8,2.5,5.1,5.4,6.6,8.7c1.6,3.4,2.4,7.2,2.4,11.1C184.2,134,171.4,145.5,153.6,145.5z M153.5,108.1c-2.8,0-5.3,1-7.1,2.8
						c-0.9,0.9-1.6,2-2.1,3.2c-0.5,1.3-0.8,2.7-0.8,4.1c0,1.5,0.2,2.8,0.7,4.1c0.5,1.2,1.1,2.3,2,3.1c1.8,1.8,4.3,2.8,7.3,2.8
						c1.4,0,2.8-0.3,4-0.7c1.2-0.5,2.2-1.2,3.1-2.1c0.9-0.9,1.6-1.9,2-3.1c0.5-1.3,0.7-2.6,0.7-4.1c0-1.5-0.3-2.9-0.8-4.1
						c-0.5-1.2-1.2-2.3-2.1-3.2C158.7,109.1,156.2,108.1,153.5,108.1z"/>
					<path class="st1" d="M153.6,92.3c-16.5,0-29.5,10.7-29.5,26c0,15.1,11.8,25.9,29.5,25.9c16.9,0,29.2-10.8,29.2-25.9
						C182.8,103,169.8,92.3,153.6,92.3 M153.5,129.7c-6.9,0-11.5-4.8-11.5-11.5c0-6.8,5.1-11.5,11.5-11.5c6.3,0,11.4,4.8,11.4,11.5
						C164.9,124.9,160.1,129.7,153.5,129.7 M153.6,89.4c8.6,0,16.6,2.8,22.5,7.9c3,2.6,5.3,5.7,6.9,9.1c1.7,3.6,2.5,7.6,2.5,11.7
						c0,4.1-0.8,8-2.4,11.6c-1.6,3.5-3.9,6.6-6.8,9.1c-2.9,2.6-6.3,4.5-10.2,5.9c-3.9,1.4-8.2,2.1-12.6,2.1c-4.6,0-9-0.7-13-2.1
						c-3.9-1.4-7.4-3.3-10.3-5.9c-2.9-2.6-5.2-5.7-6.7-9.2c-1.6-3.6-2.4-7.4-2.4-11.6c0-4.1,0.9-8.1,2.6-11.7c1.6-3.5,4-6.6,7-9.2
						C136.8,92.3,144.9,89.4,153.6,89.4z M153.5,126.8c1.3,0,2.4-0.2,3.5-0.6c1-0.4,1.9-1,2.6-1.7c0.7-0.8,1.3-1.6,1.7-2.7
						c0.4-1.1,0.6-2.3,0.6-3.6c0-1.3-0.2-2.5-0.7-3.6c-0.4-1-1-1.9-1.8-2.7c-1.6-1.6-3.7-2.4-6-2.4c-2.4,0-4.6,0.9-6.1,2.4
						c-0.8,0.8-1.4,1.7-1.8,2.7c-0.4,1.1-0.7,2.3-0.7,3.6c0,2.5,0.8,4.7,2.3,6.2C148.8,126,150.9,126.8,153.5,126.8z"/>
				</g>
				<g id="Path_20_1_" transform="translate(175.252 -34.463)">
					<path class="st2" d="M182.5,144.1h-1.4h-16.9h-1.4v-1.4V115c0-2.1-0.7-4.2-2-5.7c-1-1.1-2.7-2.4-5.3-2.4
						c-2.1,0-4.2,0.9-5.9,2.6c-1.7,1.6-2.7,3.6-2.7,5.6v27.7v1.4h-1.4h-16.9h-1.4v-1.4v-49v-1.4h1.4h16.9h1.4v1.4v2.1
						c1.5-1.2,3-2.2,4.6-3c2.7-1.3,5.5-2,8.2-2c2.5,0,5.1,0.3,7.5,1c2.8,0.7,5.3,1.8,7.4,3.2c2.5,1.6,4.4,3.7,5.7,6.1
						c1.5,2.7,2.3,5.8,2.3,9.3v32.3V144.1z"/>
					<path class="st1" d="M159.6,92.3c-5.3,0-10.2,2.8-14,6.6h-0.2v-5.2h-16.9v49h16.9V115c0-4.9,5-9.5,10-9.5
						c5.4,0,8.8,4.7,8.8,9.5v27.7h16.9v-32.3C181.1,96.8,168.6,92.3,159.6,92.3 M159.6,89.4c2.6,0,5.3,0.3,7.9,1
						c2.9,0.8,5.6,1.9,7.8,3.4c2.6,1.8,4.7,4,6.2,6.6c1.6,2.9,2.5,6.3,2.5,10v32.3v2.8h-2.8h-16.9h-2.8v-2.8V115
						c0-1.8-0.6-3.5-1.7-4.8c-0.8-0.9-2.1-1.9-4.3-1.9c-1.7,0-3.5,0.8-5,2.2c-1.4,1.3-2.2,3-2.2,4.5v27.7v2.8h-2.8h-16.9h-2.8v-2.8
						v-49v-2.8h2.8h16.9h2.8V93c0.8-0.5,1.7-1,2.5-1.4C153.7,90.2,156.6,89.4,159.6,89.4z"/>
				</g>
			</g>
		</g>
	</g>
</g>
</svg>
