<?xml version="1.0" encoding="utf-8"?>
<!-- Generator: Adobe Illustrator 23.0.4, SVG Export Plug-In . SVG Version: 6.00 Build 0)  -->
<svg version="1.1" id="Layer_1" xmlns="http://www.w3.org/2000/svg" xmlns:xlink="http://www.w3.org/1999/xlink" x="0px" y="0px"
	 viewBox="0 0 600.5 157.9" style="enable-background:new 0 0 600.5 157.9;" xml:space="preserve">
<style type="text/css">
	.st0{enable-background:new    ;}
	.st1{fill:#231F20;}
	.st2{fill:#707171;}
</style>
<g>
	<g class="st0">
		<path class="st1" d="M43,92.9c0,6.5,5.1,11.7,11.2,11.7c4.9,0,7.9-2.2,7.9-2.2l5.5,11.3c0,0-5.3,4.2-15.8,4.2
			c-13.6,0-26.1-11-26.1-24.8C25.7,79.2,38.1,68,51.8,68c10.5,0,15.8,4.4,15.8,4.4l-5.5,11.1c0,0-3-2.2-7.9-2.2
			C48,81.3,43,86.5,43,92.9z"/>
		<path class="st1" d="M93.8,68c6.3,0,11.6,2.1,15.5,5.9v-4.5h16.3v47.2h-16.1v-5.3h-0.2c-3.5,3.9-9,6.7-15.5,6.7
			c-13.8,0-23.5-11.1-23.5-24.9C70.4,79.2,80,68,93.8,68z M98.7,104.1c6.3,0,10.9-4.6,10.9-11c0-6.5-4.9-11.1-10.9-11.1
			c-6.2,0-11,4.6-11,11.1C87.7,99.5,92.1,104.1,98.7,104.1z"/>
		<path class="st1" d="M136.6,69.4h16.3v6.8h0.2c0,0,5.2-8.2,14.4-8.2c6.1,0,10.3,2.9,10.3,2.9L171,84.7c0,0-3-2.6-8.5-2.6
			c-8.5,0-9.7,8.4-9.7,9.6v24.8h-16.3V69.4z"/>
		<path class="st1" d="M214.2,117.9c-6.4,0-12-2.9-15.5-6.7h-0.2v5.3h-16.1V37.4h16.3v36.4c3.9-3.8,9.1-5.9,15.5-5.9
			c13.8,0,23.5,11.2,23.5,25C237.6,106.8,228,117.9,214.2,117.9z M209.3,81.9c-6.1,0-10.9,4.6-10.9,11.1c0,6.4,4.6,11,10.9,11
			c6.6,0,11-4.6,11-11C220.3,86.5,215.5,81.9,209.3,81.9z"/>
		<path class="st1" d="M270.3,68c15.6,0,28.2,10.3,28.2,25c0,14.5-11.9,24.9-28.2,24.9c-17,0-28.4-10.4-28.4-24.9
			C241.9,78.3,254.4,68,270.3,68z M270.2,104.1c6.3,0,10.9-4.6,10.9-11c0-6.5-4.9-11.1-10.9-11.1c-6.2,0-11,4.6-11,11.1
			C259.2,99.5,263.6,104.1,270.2,104.1z"/>
		<path class="st1" d="M305.9,69.4h16.3v5h0.2c3.7-3.7,8.4-6.3,13.5-6.3c8.6,0,20.7,4.3,20.7,17.5v31.1h-16.3V89.9
			c0-4.7-3.2-9.2-8.5-9.2c-4.9,0-9.7,4.5-9.7,9.2v26.7h-16.3V69.4z"/>
		<path class="st2" d="M398.4,117.9c-6.3,0-11.6-2.1-15.5-5.9v28.4h-16.3V69.4h16.1v5.3h0.2c3.5-3.9,9-6.7,15.5-6.7
			c13.8,0,23.5,11.1,23.5,24.9C421.9,106.7,412.2,117.9,398.4,117.9z M393.6,81.9c-6.3,0-10.9,4.6-10.9,11c0,6.5,4.9,11.1,10.9,11.1
			c6.2,0,11-4.6,11-11.1C404.6,86.5,400.2,81.9,393.6,81.9z"/>
		<path class="st2" d="M429.5,37.4h16.3v79.1h-16.3V37.4z"/>
		<path class="st2" d="M476.9,68c6.3,0,11.6,2.1,15.5,5.9v-4.5h16.3v47.2h-16.1v-5.3h-0.2c-3.5,3.9-9,6.7-15.5,6.7
			c-13.8,0-23.5-11.1-23.5-24.9C453.5,79.2,463.1,68,476.9,68z M481.8,104.1c6.3,0,10.9-4.6,10.9-11c0-6.5-4.9-11.1-10.9-11.1
			c-6.2,0-11,4.6-11,11.1C470.8,99.5,475.2,104.1,481.8,104.1z"/>
		<path class="st2" d="M519.7,69.4H536v5h0.2c3.7-3.7,8.4-6.3,13.5-6.3c8.6,0,20.7,4.3,20.7,17.5v31.1h-16.3V89.9
			c0-4.7-3.2-9.2-8.5-9.2c-4.9,0-9.7,4.5-9.7,9.2v26.7h-16.3V69.4z"/>
	</g>
</g>
</svg>
